HIERARCHY
ROOT Hips
{
    OFFSET 9.729913711547852 89.9713363647461 -18.058277130126953
    CHANNELS 6 Xposition Yposition Zposition Zrotation Xrotation Yrotation
    JOINT RightUpLeg
    {
        OFFSET -9.729913711547852 0.0 0.0
        CHANNELS 3 Zrotation Xrotation Yrotation
        JOINT RightLeg
        {
            OFFSET 0.0 -44.825645446777344 0.0
            CHANNELS 3 Zrotation Xrotation Yrotation
            JOINT RightFoot
            {
                OFFSET 0.0 -45.14569091796875 0.0
                CHANNELS 3 Zrotation Xrotation Yrotation
                End Site
                {
                    OFFSET 0.0 0.0 18.058277130126953
                }
            }
        }
    }
    JOINT LeftUpLeg
    {
        OFFSET 9.729913711547852 0.0 0.0
        CHANNELS 3 Zrotation Xrotation Yrotation
        JOINT LeftLeg
        {
            OFFSET 0.0 -44.825645446777344 0.0
            CHANNELS 3 Zrotation Xrotation Yrotation
            JOINT LeftFoot
            {
                OFFSET 0.0 -45.14569091796875 0.0
                CHANNELS 3 Zrotation Xrotation Yrotation
                End Site
                {
                    OFFSET 0.0 0.0 18.058277130126953
                }
            }
        }
    }
    JOINT Spine
    {
        OFFSET 0.0 23.505029678344727 0.0
        CHANNELS 3 Zrotation Xrotation Yrotation
        JOINT Spine3
        {
            OFFSET 0.0 25.11911392211914 0.0
            CHANNELS 3 Zrotation Xrotation Yrotation
            JOINT Neck
            {
                OFFSET 0.0 10.603590965270996 0.0
                CHANNELS 3 Zrotation Xrotation Yrotation
                End Site
                {
                    OFFSET 0.0 4.24143648147583 0.0
                }
            }
            JOINT LeftArm
            {
                OFFSET 11.02685546875 0.0 0.0
                CHANNELS 3 Zrotation Xrotation Yrotation
                JOINT LeftForeArm
                {
                    OFFSET 27.139904022216797 0.0 0.0
                    CHANNELS 3 Zrotation Xrotation Yrotation
                    JOINT LeftHand
                    {
                        OFFSET 18.099136352539062 0.0 0.0
                        CHANNELS 3 Zrotation Xrotation Yrotation
                        End Site
                        {
                            OFFSET 7.239654064178467 0.0 0.0
                        }
                    }
                }
            }
            JOINT RightArm
            {
                OFFSET -11.02685546875 0.0 0.0
                CHANNELS 3 Zrotation Xrotation Yrotation
                JOINT RightForeArm
                {
                    OFFSET -27.139904022216797 0.0 0.0
                    CHANNELS 3 Zrotation Xrotation Yrotation
                    JOINT RightHand
                    {
                        OFFSET -18.099136352539062 0.0 0.0
                        CHANNELS 3 Zrotation Xrotation Yrotation
                        End Site
                        {
                            OFFSET -7.239654064178467 0.0 0.0
                        }
                    }
                }
            }
        }
    }
}
MOTION
Frames: 4
Frame Time: 0.03333333333333333
0.0005217043217271566 89.93962097167969 -0.0011138760019093752 -0.7324613641059718 -5.945578794371104 -16.251548830923433 2.332036300637208 14.338964041860423 -0.5819749421836543 1.5103615346262884 10.625478037770135 -0.6980683756294958 -7.951386703658794e-16 3.1805546814635176e-15 7.951386703658794e-16 4.328521358024516 13.844055893153373 -1.0505598353666659 0.8387815530607406 12.127426319801076 -1.0739692713104814 0.0 0.0 1.987846675914698e-16 1.9950125330207196 17.238165838027392 -0.6019209551708679 -3.3940418931732177e-07 -2.584188177572371e-08 2.3464482356946705 -0.4446126036755308 14.332011635056995 178.98386373923856 122.32695970479645 -10.718305012937165 -173.1424249081806 2.5790295764432027e-06 4.018955332996718e-06 93.07444079922402 -6.3611093629270335e-15 3.531125038440127e-31 -6.3611093629270335e-15 -113.30739688900695 -26.066148527480312 176.07414358316436 -7.084236023596438e-07 2.6355921251994673e-06 -36.26747162436295 2.8823776800763118e-15 0.0 0.0
0.0005766403046436608 89.93966674804688 -0.0011013358598574996 -0.8471906175122901 -5.777539151093871 -16.401005422267602 2.6814533720833174 14.116682142363636 -0.5984566894662947 1.5352234223023948 10.852493767868506 -0.7369646509805988 3.4483642953516864e-34 -1.987846675914698e-16 1.987846675914698e-16 4.773106920038389 13.565460705436646 -1.0767908231942394 0.45404525830150433 12.23171395826117 -1.0433039688180314 1.5902773407317584e-15 -8.276074308844047e-33 -5.963540027744094e-16 2.1711883932611853 17.31298537127813 -0.5837609266348849 -3.697746061096801e-08 -3.0865633971652594e-07 2.494103489624722 -0.4250063648764587 14.06280792275613 178.59914385414032 121.46572632867844 -10.455491548708235 -173.57478034956162 -1.8239207357661286e-06 4.820957007396373e-06 91.03925591234228 3.1805546814635164e-15 1.7655625192200634e-31 6.361109362927033e-15 -113.22388715403687 -24.213716602182753 176.10059409547856 2.8410817233800066e-06 1.0100034110292483e-06 -35.89222902532581 -9.93923337957349e-16 -2.758691436281349e-32 3.1805546814635168e-15
0.0005925400764681399 89.93970489501953 -0.001103373127989471 -1.0611617121284687 -5.698534564991923 -16.86335539177769 3.015204305935604 13.979312522106964 -0.6277445667655454 1.518365072489714 10.838017223022227 -0.7596727811846005 0.0 0.0 -3.379339349054987e-15 5.127952121549687 13.484251686645267 -1.1096379567180998 -0.022469305446814625 12.304654990068734 -0.9822383267027781 -5.172546443027529e-33 2.9817700138720468e-15 1.987846675914698e-16 2.542777866311127 17.17295818663357 -0.633290008589368 1.0660127505862868e-07 1.4585209989880952e-07 2.5102024998538472 -0.44986099209951474 13.824766877448976 178.8668940481401 120.97729994477972 -12.95669361992737 -173.5988212304369 -6.913644324330096e-06 7.463658121925904e-07 88.8160192650638 -3.1805546814635164e-15 6.3611093629270335e-15 -6.3611093629270335e-15 -113.26996091386938 -23.724968687493796 176.13140467831238 4.624251370856887e-06 -2.606592593885143e-06 -35.48693149688289 1.5902773407317584e-15 0.0 0.0
0.0006198275368660688 89.93972778320312 -0.0011095907539129257 -1.2150205602502535 -5.652426489287493 -17.02774577611367 3.2707763524162723 13.792015783109045 -0.6455898490754994 1.5173890831816028 10.818724442697944 -0.7786497410958785 -1.5902773407317584e-15 2.758691436281349e-33 -1.987846675914698e-16 5.387384113491733 13.303984789690459 -1.121551518504421 -0.10279082035895136 12.220226261905236 -0.9827924298939092 0.0 0.0 -1.3914926731402886e-15 2.914251950953109 17.185363304831856 -0.7005210326233794 -6.83306137341308e-07 -6.210230347034056e-07 2.9832812620006046 -0.8865323129090127 13.915709520665551 179.035258990819 120.2780576480104 -14.888369069362403 -174.19317150001697 7.022901158742626e-06 1.5815420104720247e-06 88.35424723866248 -4.770832022195275e-15 2.648343778830095e-31 -6.3611093629270335e-15 -113.04959165802966 -21.982535218836574 176.2121961815118 2.6020272972008638e-06 -1.1834008525498765e-06 -34.62490365640722 -2.7829853462805768e-15 3.1805546814635164e-15 7.724336021587778e-32
